<svg xmlns="http://www.w3.org/2000/svg" version="1.1" style="font-family:Lato, &#x27;Helvetica Neue&#x27;, Helvetica, Arial, &#x27;Liberation Sans&#x27;, sans-serif;font-size:18px;background-color:white;text-rendering:geometricPrecision;-webkit-font-smoothing:antialiased" width="850" height="706.25" viewBox="0 0 850 706.25"><defs><style>@import url(https://ourworldindata.org/fonts.css)</style></defs><defs><pattern id="noDataPattern" patternUnits="userSpaceOnUse" width="4" height="4" patternTransform="rotate(-45 2 2)"><path d="M -1,2 l 6,0" stroke="#ccc" stroke-width="0.7"></path></pattern></defs><rect class="background-fill" fill="white" width="850" height="706.25"></rect><g id="header" class="HeaderView"><g id="logo" transform="translate(769, 16) scale(1)"><svg className="owidLogo" xmlns="http://www.w3.org/2000/svg" width="65" height="36" viewBox="0 0 65 36"  fill="none"><path fill="#002147" d="M0 0h64.8v36H0z"/><path fill="#CE261E" d="M0 33.3h64.8V36H0z"/><path fill="#fff" d="M13.796 10.575c0 .636-.106 1.226-.318 1.77a4.193 4.193 0 0 1-.894 1.404 4.084 4.084 0 0 1-1.386.93c-.54.22-1.138.33-1.794.33-.656 0-1.256-.11-1.8-.33a4.149 4.149 0 0 1-1.392-.93 4.193 4.193 0 0 1-.894-1.404A4.833 4.833 0 0 1 5 10.575c0-.636.106-1.224.318-1.764a4.18 4.18 0 0 1 .894-1.41 4.076 4.076 0 0 1 1.392-.924 4.684 4.684 0 0 1 1.8-.336c.656 0 1.254.112 1.794.336.54.224 1.002.534 1.386.93.384.392.682.86.894 1.404.212.54.318 1.128.318 1.764Zm-1.656 0c0-.476-.064-.902-.192-1.278a2.671 2.671 0 0 0-.54-.966 2.332 2.332 0 0 0-.864-.606 2.94 2.94 0 0 0-1.14-.21c-.424 0-.806.07-1.146.21-.34.14-.63.342-.87.606a2.742 2.742 0 0 0-.546.966 3.955 3.955 0 0 0-.192 1.278c0 .476.064.904.192 1.284.128.376.31.696.546.96.24.26.53.46.87.6.34.14.722.21 1.146.21.424 0 .804-.07 1.14-.21.34-.14.628-.34.864-.6.236-.264.416-.584.54-.96a4.01 4.01 0 0 0 .192-1.284ZM16.104 8.757v3.912c0 .376.086.668.258.876.176.204.438.306.786.306.256 0 .496-.056.72-.168a2.58 2.58 0 0 0 .636-.474V8.757h1.482v6.156h-.906c-.192 0-.318-.09-.378-.27l-.102-.492a4.65 4.65 0 0 1-.396.354 2.577 2.577 0 0 1-.438.27 2.35 2.35 0 0 1-.498.168 2.345 2.345 0 0 1-.57.066c-.336 0-.634-.056-.894-.168a1.821 1.821 0 0 1-.648-.486 2.157 2.157 0 0 1-.402-.738 3.233 3.233 0 0 1-.132-.948V8.757h1.482ZM21.328 14.913V8.757h.87c.152 0 .258.028.318.084.06.056.1.152.12.288l.09.744c.22-.38.478-.68.774-.9.296-.22.628-.33.996-.33.304 0 .556.07.756.21l-.192 1.11c-.012.072-.038.124-.078.156a.278.278 0 0 1-.162.042 1.01 1.01 0 0 1-.246-.042 1.646 1.646 0 0 0-.414-.042c-.308 0-.572.086-.792.258-.22.168-.406.416-.558.744v3.834h-1.482ZM27.347 6.237h1.356a.57.57 0 0 1 .348.102c.096.064.16.152.192.264l1.476 5.19c.036.128.068.268.096.42.032.148.062.306.09.474a5.968 5.968 0 0 1 .228-.894l1.704-5.19a.575.575 0 0 1 .186-.252.543.543 0 0 1 .348-.114h.474a.57.57 0 0 1 .348.102.497.497 0 0 1 .192.264l1.692 5.19c.088.256.164.54.228.852.028-.156.056-.306.084-.45.032-.144.064-.278.096-.402l1.476-5.19c.028-.1.09-.186.186-.258a.563.563 0 0 1 .348-.108h1.266l-2.694 8.676h-1.458l-1.896-5.928-.078-.246a9.504 9.504 0 0 1-.072-.282c-.024.1-.05.194-.078.282-.024.088-.048.17-.072.246l-1.914 5.928H30.04l-2.694-8.676ZM42.771 8.661c.46 0 .876.074 1.248.222.376.148.696.358.96.63s.468.604.612.996c.144.392.216.83.216 1.314 0 .488-.072.928-.216 1.32a2.85 2.85 0 0 1-.612 1.002 2.653 2.653 0 0 1-.96.636 3.35 3.35 0 0 1-1.248.222c-.46 0-.878-.074-1.254-.222a2.712 2.712 0 0 1-.966-.636 2.922 2.922 0 0 1-.618-1.002 3.807 3.807 0 0 1-.216-1.32c0-.484.072-.922.216-1.314.148-.392.354-.724.618-.996.268-.272.59-.482.966-.63a3.397 3.397 0 0 1 1.254-.222Zm0 5.202c.512 0 .89-.172 1.134-.516.248-.344.372-.848.372-1.512s-.124-1.17-.372-1.518c-.244-.348-.622-.522-1.134-.522-.52 0-.904.176-1.152.528-.248.348-.372.852-.372 1.512s.124 1.164.372 1.512c.248.344.632.516 1.152.516ZM46.723 14.913V8.757h.87c.152 0 .258.028.318.084.06.056.1.152.12.288l.09.744c.22-.38.478-.68.774-.9.296-.22.628-.33.996-.33.304 0 .556.07.756.21l-.192 1.11c-.012.072-.038.124-.078.156a.278.278 0 0 1-.162.042 1.01 1.01 0 0 1-.246-.042 1.646 1.646 0 0 0-.414-.042c-.308 0-.572.086-.792.258-.22.168-.406.416-.558.744v3.834h-1.482ZM52.96 5.997v8.916h-1.482V5.997h1.482ZM58.732 14.913c-.192 0-.318-.09-.378-.27l-.12-.594a3.68 3.68 0 0 1-.402.39c-.14.116-.292.216-.456.3-.16.084-.334.148-.522.192a2.372 2.372 0 0 1-.6.072c-.336 0-.644-.07-.924-.21a2.098 2.098 0 0 1-.726-.606 3.033 3.033 0 0 1-.468-.99 5.072 5.072 0 0 1-.162-1.344c0-.456.062-.88.186-1.272s.302-.732.534-1.02c.232-.288.51-.512.834-.672a2.384 2.384 0 0 1 1.092-.246 2.103 2.103 0 0 1 1.536.606V5.997h1.482v8.916h-.906Zm-1.974-1.086c.308 0 .57-.064.786-.192.216-.128.42-.31.612-.546v-2.76a1.452 1.452 0 0 0-.552-.432 1.597 1.597 0 0 0-.636-.126c-.224 0-.428.042-.612.126a1.21 1.21 0 0 0-.462.384c-.124.168-.22.384-.288.648-.068.26-.102.568-.102.924 0 .36.028.666.084.918.06.248.144.452.252.612.108.156.24.27.396.342.156.068.33.102.522.102ZM16.331 20.757v6.156H14.85v-6.156h1.481Zm.223-1.794a.844.844 0 0 1-.078.36.963.963 0 0 1-.21.294.995.995 0 0 1-.3.204.963.963 0 0 1-.372.072.948.948 0 0 1-.367-.072 1.018 1.018 0 0 1-.498-.498.963.963 0 0 1 0-.732.995.995 0 0 1 .205-.3.929.929 0 0 1 .293-.198.899.899 0 0 1 .738 0 .912.912 0 0 1 .3.198.943.943 0 0 1 .288.672ZM17.771 26.913v-6.156h.906c.192 0 .318.09.378.27l.102.486a2.934 2.934 0 0 1 .828-.618c.156-.076.322-.134.498-.174.176-.04.368-.06.576-.06.336 0 .634.058.894.174.26.112.476.272.648.48.176.204.308.45.396.738.092.284.138.598.138.942v3.918h-1.482v-3.918c0-.376-.088-.666-.264-.87-.172-.208-.432-.312-.78-.312-.256 0-.496.058-.72.174a2.58 2.58 0 0 0-.636.474v4.452h-1.482ZM34.22 22.575c0 .636-.106 1.22-.318 1.752-.212.532-.51.99-.894 1.374a4 4 0 0 1-1.386.894 4.87 4.87 0 0 1-1.794.318h-3.312v-8.676h3.312a4.79 4.79 0 0 1 1.794.324 4 4 0 0 1 1.386.894c.384.38.682.836.894 1.368.212.532.318 1.116.318 1.752Zm-1.65 0c0-.476-.064-.902-.192-1.278a2.68 2.68 0 0 0-.546-.96 2.332 2.332 0 0 0-.864-.606 2.94 2.94 0 0 0-1.14-.21h-1.686v6.108h1.686c.424 0 .804-.07 1.14-.21.34-.14.628-.34.864-.6a2.75 2.75 0 0 0 .546-.96 4.01 4.01 0 0 0 .192-1.284ZM39.98 26.913h-.665c-.14 0-.25-.02-.33-.06-.08-.044-.14-.13-.18-.258l-.132-.438c-.156.14-.31.264-.462.372a2.804 2.804 0 0 1-.462.264c-.16.072-.33.126-.51.162-.18.036-.38.054-.6.054-.26 0-.5-.034-.72-.102a1.618 1.618 0 0 1-.57-.318 1.448 1.448 0 0 1-.366-.522 1.852 1.852 0 0 1-.132-.726c0-.232.06-.46.18-.684.124-.228.328-.432.612-.612.284-.184.662-.336 1.134-.456.472-.12 1.058-.188 1.758-.204v-.36c0-.412-.088-.716-.264-.912-.172-.2-.424-.3-.756-.3a1.837 1.837 0 0 0-1.02.276c-.116.068-.224.13-.324.186a.664.664 0 0 1-.33.084.429.429 0 0 1-.258-.078.614.614 0 0 1-.174-.192l-.27-.474c.708-.648 1.562-.972 2.562-.972.36 0 .68.06.96.18.284.116.524.28.72.492.196.208.344.458.444.75.104.292.156.612.156.96v3.888Zm-2.88-.924c.153 0 .293-.014.42-.042.129-.028.249-.07.36-.126.117-.056.227-.124.33-.204.109-.084.217-.182.325-.294v-1.038c-.432.02-.794.058-1.086.114-.288.052-.52.12-.696.204a.923.923 0 0 0-.378.294.664.664 0 0 0-.108.366c0 .26.076.446.228.558.156.112.358.168.606.168ZM43.22 27.01c-.532 0-.942-.15-1.23-.45-.288-.305-.432-.723-.432-1.255v-3.438h-.624a.31.31 0 0 1-.21-.078c-.056-.052-.084-.13-.084-.234v-.588l.99-.162.312-1.68a.302.302 0 0 1 .108-.186.365.365 0 0 1 .222-.066h.768v1.938h1.62v1.056h-1.62v3.336c0 .192.048.342.144.45a.488.488 0 0 0 .384.162c.092 0 .168-.01.228-.03.064-.024.118-.048.162-.072.048-.024.09-.046.126-.066a.194.194 0 0 1 .108-.036.16.16 0 0 1 .108.036c.028.02.058.052.09.096l.444.72c-.216.18-.464.316-.744.408a2.77 2.77 0 0 1-.87.138ZM50.423 26.913h-.666c-.14 0-.25-.02-.33-.06-.08-.044-.14-.13-.18-.258l-.132-.438c-.156.14-.31.264-.462.372a2.804 2.804 0 0 1-.462.264c-.16.072-.33.126-.51.162-.18.036-.38.054-.6.054-.26 0-.5-.034-.72-.102a1.618 1.618 0 0 1-.57-.318 1.448 1.448 0 0 1-.366-.522 1.852 1.852 0 0 1-.132-.726c0-.232.06-.46.18-.684.124-.228.328-.432.612-.612.284-.184.662-.336 1.134-.456.472-.12 1.058-.188 1.758-.204v-.36c0-.412-.088-.716-.264-.912-.172-.2-.424-.3-.756-.3a1.837 1.837 0 0 0-1.02.276c-.116.068-.224.13-.324.186a.664.664 0 0 1-.33.084.429.429 0 0 1-.258-.078.614.614 0 0 1-.174-.192l-.27-.474c.708-.648 1.562-.972 2.562-.972.36 0 .68.06.96.18.284.116.524.28.72.492.196.208.344.458.444.75.104.292.156.612.156.96v3.888Zm-2.88-.924c.152 0 .292-.014.42-.042.128-.028.248-.07.36-.126.116-.056.226-.124.33-.204.108-.084.216-.182.324-.294v-1.038c-.432.02-.794.058-1.086.114-.288.052-.52.12-.696.204a.923.923 0 0 0-.378.294.664.664 0 0 0-.108.366c0 .26.076.446.228.558.156.112.358.168.606.168Z"/></svg></g><a id="title" href="https://ourworldindata.org/grapher/suicide-rates-by-age-who-mdb?time=1987..2010" style="font-family:&#x27;Playfair Display&#x27;, Georgia, &#x27;Times New Roman&#x27;, &#x27;Liberation Serif&#x27;, serif" target="_blank" rel="noopener"><text font-size="24.75" font-weight="600" x="16.0" y="40.0" fill="#5b5b5b"><tspan x="16" y="40.0075">Reported suicide rates by age, United States</tspan></text></a><g id="subtitle" class="markdown-text-wrap"><text x="16.0" y="63.9" style="font-size:14.625px;line-height:1.2" fill="#5b5b5b"><tspan x="16" y="63.9">Reported annual death rate from suicide per 100,000 people. Suicide deaths are underreported in many countries</tspan><tspan x="16" y="81.4">due to social stigma and cultural or legal concerns. This data has not been adjusted for underreporting, and</tspan><tspan x="16" y="99.0">comparisons may be affected by differences in measurement.</tspan></text></g></g><g id="chart-area" style="pointer-events:none"><g id="line-chart" class="LineChart"><defs><clipPath id="boundsClip-69"><rect x="26.120000000000005" y="108.35" width="838" height="435.25"></rect></clipPath></defs><rect x="16" y="118.35" width="818" height="415.25" fill="none"></rect><g id="dual-axis" class="DualAxisView"><g id="horizontal-axis" class="HorizontalAxis"><g id="tick__1987"><line x1="36.1" y1="512.6" x2="36.1" y2="518.1" stroke="#999" stroke-width="1"></line><text x="36.120000000000005" y="531.6" fill="#5b5b5b" text-anchor="start" font-size="13.5">1987</text></g><g id="tick__2010"><line x1="762" y1="512.6" x2="762" y2="518.1" stroke="#999" stroke-width="1"></line><text x="762.01" y="531.6" fill="#5b5b5b" text-anchor="end" font-size="13.5">2010</text></g><g id="tick__1990"><line x1="130.8" y1="512.6" x2="130.8" y2="518.1" stroke="#999" stroke-width="1"></line><text x="130.8" y="531.6" fill="#5b5b5b" text-anchor="middle" font-size="13.5">1990</text></g><g id="tick__1995"><line x1="288.6" y1="512.6" x2="288.6" y2="518.1" stroke="#999" stroke-width="1"></line><text x="288.6" y="531.6" fill="#5b5b5b" text-anchor="middle" font-size="13.5">1995</text></g><g id="tick__2000"><line x1="446.4" y1="512.6" x2="446.4" y2="518.1" stroke="#999" stroke-width="1"></line><text x="446.4" y="531.6" fill="#5b5b5b" text-anchor="middle" font-size="13.5">2000</text></g><g id="tick__2005"><line x1="604.2" y1="512.6" x2="604.2" y2="518.1" stroke="#999" stroke-width="1"></line><text x="604.2" y="531.6" fill="#5b5b5b" text-anchor="middle" font-size="13.5">2005</text></g></g><g id="vertical-axis" class="VerticalAxis"><g id="tick-labels"><text id="tick-label__0" x="31.12" y="513.1" dy=".32em" text-anchor="end" fill="#5b5b5b" font-size="13.5">0</text><text id="tick-label__5" x="31.12" y="443.8" dy=".32em" text-anchor="end" fill="#5b5b5b" font-size="13.5">5</text><text id="tick-label__10" x="31.12" y="374.5" dy=".32em" text-anchor="end" fill="#5b5b5b" font-size="13.5">10</text><text id="tick-label__15" x="31.12" y="305.2" dy=".32em" text-anchor="end" fill="#5b5b5b" font-size="13.5">15</text><text id="tick-label__20" x="31.12" y="235.9" dy=".32em" text-anchor="end" fill="#5b5b5b" font-size="13.5">20</text><text id="tick-label__25" x="31.12" y="166.6" dy=".32em" text-anchor="end" fill="#5b5b5b" font-size="13.5">25</text></g></g><g id="horizontal-grid-lines" class="AxisGridLines horizontalLines"><line id="grid-line__0" x1="36.12" y1="513.1" x2="762.01" y2="513.1" stroke="#999" stroke-width="1"></line><line id="grid-line__5" x1="36.12" y1="443.8" x2="762.01" y2="443.8" stroke="#ddd" stroke-width="1" stroke-dasharray="3,2"></line><line id="grid-line__10" x1="36.12" y1="374.5" x2="762.01" y2="374.5" stroke="#ddd" stroke-width="1" stroke-dasharray="3,2"></line><line id="grid-line__15" x1="36.12" y1="305.2" x2="762.01" y2="305.2" stroke="#ddd" stroke-width="1" stroke-dasharray="3,2"></line><line id="grid-line__20" x1="36.12" y1="235.9" x2="762.01" y2="235.9" stroke="#ddd" stroke-width="1" stroke-dasharray="3,2"></line><line id="grid-line__25" x1="36.12" y1="166.6" x2="762.01" y2="166.6" stroke="#ddd" stroke-width="1" stroke-dasharray="3,2"></line></g></g><g clip-path="url(#boundsClip-69)"><g id="line-labels" class="LineLabels"><g id="mark__50__201354" class="legendMark" style="cursor:default"><g id="connector" class="indicator"><path d="M766.01,235.9 H769.01 V189.62142857142857 H793.01" stroke="#999" stroke-width="0.5" fill="none"></path></g><rect id="background" x="762.01" y="182.87142857142857" width="71.99000000000001" height="13.5" fill="#fff" opacity="0"></rect><text id="label" font-size="13.50" font-weight="400" x="797.0" y="194.6" fill="#883039"><tspan x="797.01" y="194.61642857142857">50–54</tspan></text></g><g id="mark__45__201349" class="legendMark" style="cursor:default"><g id="connector" class="indicator"><path d="M766.01,243.2 H772.01 V205.12142857142857 H793.01" stroke="#999" stroke-width="0.5" fill="none"></path></g><rect id="background" x="762.01" y="198.37142857142857" width="71.99000000000001" height="13.5" fill="#fff" opacity="0"></rect><text id="label" font-size="13.50" font-weight="400" x="797.0" y="210.1" fill="#286bbb"><tspan x="797.01" y="210.11642857142857">45–49</tspan></text></g><g id="mark__55__201359" class="legendMark" style="cursor:default"><g id="connector" class="indicator"><path d="M766.01,248.8 H775.01 V220.62142857142857 H793.01" stroke="#999" stroke-width="0.5" fill="none"></path></g><rect id="background" x="762.01" y="213.87142857142857" width="71.99000000000001" height="13.5" fill="#fff" opacity="0"></rect><text id="label" font-size="13.50" font-weight="400" x="797.0" y="225.6" fill="#996d39"><tspan x="797.01" y="225.61642857142857">55–59</tspan></text></g><g id="mark__85__002b" class="legendMark" style="cursor:default"><g id="connector" class="indicator"><path d="M766.01,265.1 H778.01 V236.12142857142857 H793.01" stroke="#999" stroke-width="0.5" fill="none"></path></g><rect id="background" x="762.01" y="229.37142857142857" width="57.95" height="13.5" fill="#fff" opacity="0"></rect><text id="label" font-size="13.50" font-weight="400" x="797.0" y="241.1" fill="#578145"><tspan x="797.01" y="241.11642857142857">85+</tspan></text></g><g id="mark__40__201344" class="legendMark" style="cursor:default"><g id="connector" class="indicator"><path d="M766.01,282.1 H781.01 V251.62142857142857 H793.01" stroke="#999" stroke-width="0.5" fill="none"></path></g><rect id="background" x="762.01" y="244.87142857142857" width="71.99000000000001" height="13.5" fill="#fff" opacity="0"></rect><text id="label" font-size="13.50" font-weight="400" x="797.0" y="256.6" fill="#18470f"><tspan x="797.01" y="256.61642857142857">40–44</tspan></text></g><g id="mark__80__201384" class="legendMark" style="cursor:default"><g id="connector" class="indicator"><path d="M766.01,290.2 H784.01 V267.12142857142857 H793.01" stroke="#999" stroke-width="0.5" fill="none"></path></g><rect id="background" x="762.01" y="260.37142857142857" width="71.99000000000001" height="13.5" fill="#fff" opacity="0"></rect><text id="label" font-size="13.50" font-weight="400" x="797.0" y="272.1" fill="#008291"><tspan x="797.01" y="272.11642857142857">80–84</tspan></text></g><g id="mark__60__201364" class="legendMark" style="cursor:default"><g id="connector" class="indicator"><path d="M766.01,294.9 H787.01 V282.62142857142857 H793.01" stroke="#999" stroke-width="0.5" fill="none"></path></g><rect id="background" x="762.01" y="275.87142857142857" width="71.99000000000001" height="13.5" fill="#fff" opacity="0"></rect><text id="label" font-size="13.50" font-weight="400" x="797.0" y="287.6" fill="#00295b"><tspan x="797.01" y="287.61642857142857">60–64</tspan></text></g><g id="mark__35__201339" class="legendMark" style="cursor:default"><g id="connector" class="indicator"><path d="M766.01,299.2 H790.01 V298.12142857142857 H793.01" stroke="#999" stroke-width="0.5" fill="none"></path></g><rect id="background" x="762.01" y="291.37142857142857" width="71.99000000000001" height="13.5" fill="#fff" opacity="0"></rect><text id="label" font-size="13.50" font-weight="400" x="797.0" y="303.1" fill="#cf0a66"><tspan x="797.01" y="303.11642857142857">35–39</tspan></text></g><g id="mark__75__201379" class="legendMark" style="cursor:default"><g id="connector" class="indicator"><path d="M766.01,299.9 H790.01 V313.62142857142857 H793.01" stroke="#999" stroke-width="0.5" fill="none"></path></g><rect id="background" x="762.01" y="306.87142857142857" width="71.99000000000001" height="13.5" fill="#fff" opacity="0"></rect><text id="label" font-size="13.50" font-weight="400" x="797.0" y="318.6" fill="#a2559c"><tspan x="797.01" y="318.61642857142857">75–79</tspan></text></g><g id="mark__25__201329" class="legendMark" style="cursor:default"><g id="connector" class="indicator"><path d="M766.01,312.8 H787.01 V329.12142857142857 H793.01" stroke="#999" stroke-width="0.5" fill="none"></path></g><rect id="background" x="762.01" y="322.37142857142857" width="71.99000000000001" height="13.5" fill="#fff" opacity="0"></rect><text id="label" font-size="13.50" font-weight="400" x="797.0" y="334.1" fill="#be5915"><tspan x="797.01" y="334.11642857142857">25–29</tspan></text></g><g id="mark__65__201369" class="legendMark" style="cursor:default"><g id="connector" class="indicator"><path d="M766.01,321 H784.01 V344.62142857142857 H793.01" stroke="#999" stroke-width="0.5" fill="none"></path></g><rect id="background" x="762.01" y="337.87142857142857" width="71.99000000000001" height="13.5" fill="#fff" opacity="0"></rect><text id="label" font-size="13.50" font-weight="400" x="797.0" y="349.6" fill="#9a5129"><tspan x="797.01" y="349.61642857142857">65–69</tspan></text></g><g id="mark__30__201334" class="legendMark" style="cursor:default"><g id="connector" class="indicator"><path d="M766.01,322.2 H781.01 V360.12142857142857 H793.01" stroke="#999" stroke-width="0.5" fill="none"></path></g><rect id="background" x="762.01" y="353.37142857142857" width="71.99000000000001" height="13.5" fill="#fff" opacity="0"></rect><text id="label" font-size="13.50" font-weight="400" x="797.0" y="365.1" fill="#6d3e91"><tspan x="797.01" y="365.11642857142857">30–34</tspan></text></g><g id="mark__70__201374" class="legendMark" style="cursor:default"><g id="connector" class="indicator"><path d="M766.01,324.4 H778.01 V375.62142857142857 H793.01" stroke="#999" stroke-width="0.5" fill="none"></path></g><rect id="background" x="762.01" y="368.87142857142857" width="71.99000000000001" height="13.5" fill="#fff" opacity="0"></rect><text id="label" font-size="13.50" font-weight="400" x="797.0" y="380.6" fill="#c4523e"><tspan x="797.01" y="380.61642857142857">70–74</tspan></text></g><g id="mark__20__201324" class="legendMark" style="cursor:default"><g id="connector" class="indicator"><path d="M766.01,325.5 H775.01 V391.12142857142857 H793.01" stroke="#999" stroke-width="0.5" fill="none"></path></g><rect id="background" x="762.01" y="384.37142857142857" width="71.99000000000001" height="13.5" fill="#fff" opacity="0"></rect><text id="label" font-size="13.50" font-weight="400" x="797.0" y="396.1" fill="#2c8465"><tspan x="797.01" y="396.11642857142857">20–24</tspan></text></g><g id="mark__15__201319" class="legendMark" style="cursor:default"><g id="connector" class="indicator"><path d="M766.01,409.5 H779.51 V409.5 H793.01" stroke="#999" stroke-width="0.5" fill="none"></path></g><rect id="background" x="762.01" y="402.75" width="71.99000000000001" height="13.5" fill="#fff" opacity="0"></rect><text id="label" font-size="13.50" font-weight="400" x="797.0" y="414.5" fill="#c15065"><tspan x="797.01" y="414.495">15–19</tspan></text></g></g><g id="lines" class="Lines"><rect x="36" y="124" width="726" height="389" fill="rgba(255,255,255,0)" opacity="0"></rect><g id="line__85__002b"><path stroke-linecap="round" stroke-linejoin="round" stroke="#ddd" d="M36.1 206.6L67.7 228.7L99.2 196.9L130.8 205.3L162.4 180.6L193.9 209.1L225.5 197.2L257 193.9L288.6 213.2L320.2 233.4L351.7 224.9L383.3 222.1L414.8 247.2L446.4 240.8L478 271.1L509.5 263.8L541.1 278.4L572.6 285.2L604.2 279.2L635.8 293.3L667.3 287.2L698.9 287.7L730.4 285.2L762 265.1" fill="none" stroke-width="1"></path></g><g id="line__80__201384"><path stroke-linecap="round" stroke-linejoin="round" stroke="#ddd" d="M36.1 146L67.7 124.3L99.2 174.8L130.8 147.2L162.4 158.9L193.9 171.9L225.5 172.7L257 200.6L288.6 201.3L320.2 205.9L351.7 227.4L383.3 196.3L414.8 243.5L446.4 245.7L478 251.2L509.5 245L541.1 268.4L572.6 281L604.2 253.4L635.8 287L667.3 293.2L698.9 268.2L730.4 281.2L762 290.2" fill="none" stroke-width="1"></path></g><g id="line__75__201379"><path stroke-linecap="round" stroke-linejoin="round" stroke="#ddd" d="M36.1 160.6L67.7 173.3L99.2 203.2L130.8 181.3L162.4 205.2L193.9 213.3L225.5 224.7L257 228.3L288.6 242L320.2 254.9L351.7 257.4L383.3 268.6L414.8 271L446.4 283.8L478 285.5L509.5 283.2L541.1 297.5L572.6 290.7L604.2 299.3L635.8 297L667.3 289L698.9 301.3L730.4 301.9L762 299.9" fill="none" stroke-width="1"></path></g><g id="line__70__201374"><path stroke-linecap="round" stroke-linejoin="round" stroke="#ddd" d="M36.1 215.4L67.7 236.4L99.2 247.9L130.8 241.4L162.4 258.9L193.9 270.7L225.5 265.3L257 278.3L288.6 273.9L320.2 294.1L351.7 295.4L383.3 302.4L414.8 310.2L446.4 322.3L478 320.5L509.5 311.2L541.1 324.7L572.6 326.4L604.2 326.4L635.8 337.8L667.3 342.8L698.9 317.9L730.4 323.1L762 324.4" fill="none" stroke-width="1"></path></g><g id="line__65__201369"><path stroke-linecap="round" stroke-linejoin="round" stroke="#ddd" d="M36.1 266.8L67.7 274.8L99.2 275.7L130.8 283.7L162.4 296L193.9 297.1L225.5 305.8L257 320.7L288.6 312.6L320.2 314.3L351.7 329.8L383.3 331.2L414.8 338.9L446.4 357.1L478 336.9L509.5 339.9L541.1 347.1L572.6 355.4L604.2 349.2L635.8 338.9L667.3 334.8L698.9 321.9L730.4 314.9L762 321" fill="none" stroke-width="1"></path></g><g id="line__60__201364"><path stroke-linecap="round" stroke-linejoin="round" stroke="#ddd" d="M36.1 282.6L67.7 299.3L99.2 297.3L130.8 292.5L162.4 299.9L193.9 305.5L225.5 310.1L257 327.5L288.6 324.2L320.2 331.5L351.7 341.6L383.3 343.6L414.8 352.5L446.4 354.4L478 347L509.5 342.2L541.1 338L572.6 330.1L604.2 328.3L635.8 327.3L667.3 311L698.9 307L730.4 311.8L762 294.9" fill="none" stroke-width="1"></path></g><g id="line__55__201359"><path stroke-linecap="round" stroke-linejoin="round" stroke="#ddd" d="M36.1 284L67.7 294.3L99.2 299.9L130.8 289.5L162.4 298.6L193.9 309.4L225.5 310.5L257 327.8L288.6 333.7L320.2 316.1L351.7 312.4L383.3 322.4L414.8 332.5L446.4 337.3L478 319.2L509.5 311L541.1 310L572.6 315.6L604.2 315.3L635.8 300.7L667.3 287.6L698.9 276L730.4 261.5L762 248.8" fill="none" stroke-width="1"></path></g><g id="line__50__201354"><path stroke-linecap="round" stroke-linejoin="round" stroke="#ddd" d="M36.1 287.8L67.7 309.7L99.2 307.4L130.8 309.8L162.4 301.6L193.9 309.9L225.5 306.3L257 314.6L288.6 312.7L320.2 309L351.7 316.8L383.3 314.8L414.8 322.3L446.4 320L478 311.3L509.5 303.9L541.1 295L572.6 288.2L604.2 289.4L635.8 274L667.3 266.7L698.9 252.8L730.4 234.5L762 235.9" fill="none" stroke-width="1"></path></g><g id="line__45__201349"><path stroke-linecap="round" stroke-linejoin="round" stroke="#ddd" d="M36.1 296.4L67.7 311.1L99.2 312.8L130.8 305.4L162.4 296.2L193.9 310L225.5 315.7L257 313.1L288.6 309.7L320.2 303.7L351.7 302.9L383.3 301.4L414.8 311.4L446.4 307L478 295.5L509.5 287.1L541.1 291.1L572.6 278.6L604.2 281.1L635.8 276.4L667.3 266.7L698.9 252L730.4 254.8L762 243.2" fill="none" stroke-width="1"></path></g><g id="line__40__201344"><path stroke-linecap="round" stroke-linejoin="round" stroke="#ddd" d="M36.1 305.4L67.7 315.7L99.2 316.5L130.8 306.7L162.4 315.2L193.9 304.4L225.5 302.1L257 303.6L288.6 298.2L320.2 295.7L351.7 297.6L383.3 298L414.8 315.2L446.4 300L478 302.6L509.5 289.5L541.1 293.1L572.6 291.3L604.2 291.4L635.8 298.8L667.3 278.4L698.9 282.8L730.4 279.3L762 282.1" fill="none" stroke-width="1"></path></g><g id="line__35__201339"><path stroke-linecap="round" stroke-linejoin="round" stroke="#ddd" d="M36.1 306.1L67.7 302.4L99.2 305.6L130.8 296.7L162.4 304.4L193.9 304.4L225.5 304.5L257 298.7L288.6 305.5L320.2 299.7L351.7 304.4L383.3 302.4L414.8 311.1L446.4 323.1L478 315.2L509.5 314.4L541.1 321.6L572.6 319L604.2 322.2L635.8 309.3L667.3 313.4L698.9 299.1L730.4 299.3L762 299.2" fill="none" stroke-width="1"></path></g><g id="line__30__201334"><path stroke-linecap="round" stroke-linejoin="round" stroke="#ddd" d="M36.1 299.8L67.7 299.8L99.2 308.6L130.8 299.9L162.4 298.7L193.9 307.2L225.5 305.8L257 305.1L288.6 296.8L320.2 315.5L351.7 315.1L383.3 323.8L414.8 322.8L446.4 347.5L478 333.4L509.5 339.6L541.1 326.4L572.6 332.9L604.2 332.7L635.8 342.5L667.3 326.5L698.9 330.4L730.4 328.8L762 322.2" fill="none" stroke-width="1"></path></g><g id="line__25__201329"><path stroke-linecap="round" stroke-linejoin="round" stroke="#ddd" d="M36.1 300.5L67.7 300.5L99.2 302.4L130.8 305.7L162.4 306.6L193.9 316.4L225.5 302.7L257 294.4L288.6 303.1L320.2 307.7L351.7 314.1L383.3 318.6L414.8 330.6L446.4 345.7L478 338.1L509.5 336.1L541.1 348.5L572.6 342.2L604.2 348.9L635.8 341.8L667.3 336.8L698.9 327.1L730.4 330.8L762 312.8" fill="none" stroke-width="1"></path></g><g id="line__20__201324"><path stroke-linecap="round" stroke-linejoin="round" stroke="#ddd" d="M36.1 301.5L67.7 305.7L99.2 301.1L130.8 303.7L162.4 307.1L193.9 306L225.5 294.1L257 285.6L288.6 288.8L320.2 312.5L351.7 324.4L383.3 325L414.8 337.3L446.4 339.7L478 346.9L509.5 341.9L541.1 345.9L572.6 340.2L604.2 341.9L635.8 340.2L667.3 339.4L698.9 338L730.4 339.2L762 325.5" fill="none" stroke-width="1"></path></g><g id="line__15__201319"><path stroke-linecap="round" stroke-linejoin="round" stroke="#ddd" d="M36.1 370.3L67.7 356.4L99.2 356.8L130.8 359.7L162.4 360.1L193.9 363.4L225.5 361.9L257 359.8L288.6 368.1L320.2 378.1L351.7 382.1L383.3 389.9L414.8 399.7L446.4 402L478 402.9L509.5 410.2L541.1 412.5L572.6 399.4L604.2 406.8L635.8 412L667.3 417.9L698.9 412.3L730.4 408.7L762 409.5" fill="none" stroke-width="1"></path></g><g id="line__85__002b"><path id="outline" fill="none" stroke-linecap="butt" stroke-linejoin="round" stroke="#fff" stroke-width="2.5" d="M36.1 206.6L67.7 228.7L99.2 196.9L130.8 205.3L162.4 180.6L193.9 209.1L225.5 197.2L257 193.9L288.6 213.2L320.2 233.4L351.7 224.9L383.3 222.1L414.8 247.2L446.4 240.8L478 271.1L509.5 263.8L541.1 278.4L572.6 285.2L604.2 279.2L635.8 293.3L667.3 287.2L698.9 287.7L730.4 285.2L762 265.1"></path><g id="polyline"><polyline id="polyline" points="36.10,206.60 67.70,228.70 99.20,196.90 130.80,205.30 162.40,180.60 193.90,209.10 225.50,197.20 257.00,193.90 288.60,213.20 320.20,233.40 351.70,224.90 383.30,222.10 414.80,247.20 446.40,240.80 478.00,271.10 509.50,263.80 541.10,278.40 572.60,285.20 604.20,279.20 635.80,293.30 667.30,287.20 698.90,287.70 730.40,285.20 762.00,265.10" stroke-linejoin="round" stroke-width="1.5" stroke="#578145" fill="none" stroke-linecap="butt"></polyline></g><g id="markers"><circle cx="36.1" cy="206.6" r="1.8" fill="#578145"></circle><circle cx="67.7" cy="228.7" r="1.8" fill="#578145"></circle><circle cx="99.2" cy="196.9" r="1.8" fill="#578145"></circle><circle cx="130.8" cy="205.3" r="1.8" fill="#578145"></circle><circle cx="162.4" cy="180.6" r="1.8" fill="#578145"></circle><circle cx="193.9" cy="209.1" r="1.8" fill="#578145"></circle><circle cx="225.5" cy="197.2" r="1.8" fill="#578145"></circle><circle cx="257" cy="193.9" r="1.8" fill="#578145"></circle><circle cx="288.6" cy="213.2" r="1.8" fill="#578145"></circle><circle cx="320.2" cy="233.4" r="1.8" fill="#578145"></circle><circle cx="351.7" cy="224.9" r="1.8" fill="#578145"></circle><circle cx="383.3" cy="222.1" r="1.8" fill="#578145"></circle><circle cx="414.8" cy="247.2" r="1.8" fill="#578145"></circle><circle cx="446.4" cy="240.8" r="1.8" fill="#578145"></circle><circle cx="478" cy="271.1" r="1.8" fill="#578145"></circle><circle cx="509.5" cy="263.8" r="1.8" fill="#578145"></circle><circle cx="541.1" cy="278.4" r="1.8" fill="#578145"></circle><circle cx="572.6" cy="285.2" r="1.8" fill="#578145"></circle><circle cx="604.2" cy="279.2" r="1.8" fill="#578145"></circle><circle cx="635.8" cy="293.3" r="1.8" fill="#578145"></circle><circle cx="667.3" cy="287.2" r="1.8" fill="#578145"></circle><circle cx="698.9" cy="287.7" r="1.8" fill="#578145"></circle><circle cx="730.4" cy="285.2" r="1.8" fill="#578145"></circle><circle cx="762" cy="265.1" r="1.8" fill="#578145"></circle></g></g><g id="line__80__201384"><path id="outline" fill="none" stroke-linecap="butt" stroke-linejoin="round" stroke="#fff" stroke-width="2.5" d="M36.1 146L67.7 124.3L99.2 174.8L130.8 147.2L162.4 158.9L193.9 171.9L225.5 172.7L257 200.6L288.6 201.3L320.2 205.9L351.7 227.4L383.3 196.3L414.8 243.5L446.4 245.7L478 251.2L509.5 245L541.1 268.4L572.6 281L604.2 253.4L635.8 287L667.3 293.2L698.9 268.2L730.4 281.2L762 290.2"></path><g id="polyline"><polyline id="polyline" points="36.10,146.00 67.70,124.30 99.20,174.80 130.80,147.20 162.40,158.90 193.90,171.90 225.50,172.70 257.00,200.60 288.60,201.30 320.20,205.90 351.70,227.40 383.30,196.30 414.80,243.50 446.40,245.70 478.00,251.20 509.50,245.00 541.10,268.40 572.60,281.00 604.20,253.40 635.80,287.00 667.30,293.20 698.90,268.20 730.40,281.20 762.00,290.20" stroke-linejoin="round" stroke-width="1.5" stroke="#008291" fill="none" stroke-linecap="butt"></polyline></g><g id="markers"><circle cx="36.1" cy="146" r="1.8" fill="#008291"></circle><circle cx="67.7" cy="124.3" r="1.8" fill="#008291"></circle><circle cx="99.2" cy="174.8" r="1.8" fill="#008291"></circle><circle cx="130.8" cy="147.2" r="1.8" fill="#008291"></circle><circle cx="162.4" cy="158.9" r="1.8" fill="#008291"></circle><circle cx="193.9" cy="171.9" r="1.8" fill="#008291"></circle><circle cx="225.5" cy="172.7" r="1.8" fill="#008291"></circle><circle cx="257" cy="200.6" r="1.8" fill="#008291"></circle><circle cx="288.6" cy="201.3" r="1.8" fill="#008291"></circle><circle cx="320.2" cy="205.9" r="1.8" fill="#008291"></circle><circle cx="351.7" cy="227.4" r="1.8" fill="#008291"></circle><circle cx="383.3" cy="196.3" r="1.8" fill="#008291"></circle><circle cx="414.8" cy="243.5" r="1.8" fill="#008291"></circle><circle cx="446.4" cy="245.7" r="1.8" fill="#008291"></circle><circle cx="478" cy="251.2" r="1.8" fill="#008291"></circle><circle cx="509.5" cy="245" r="1.8" fill="#008291"></circle><circle cx="541.1" cy="268.4" r="1.8" fill="#008291"></circle><circle cx="572.6" cy="281" r="1.8" fill="#008291"></circle><circle cx="604.2" cy="253.4" r="1.8" fill="#008291"></circle><circle cx="635.8" cy="287" r="1.8" fill="#008291"></circle><circle cx="667.3" cy="293.2" r="1.8" fill="#008291"></circle><circle cx="698.9" cy="268.2" r="1.8" fill="#008291"></circle><circle cx="730.4" cy="281.2" r="1.8" fill="#008291"></circle><circle cx="762" cy="290.2" r="1.8" fill="#008291"></circle></g></g><g id="line__75__201379"><path id="outline" fill="none" stroke-linecap="butt" stroke-linejoin="round" stroke="#fff" stroke-width="2.5" d="M36.1 160.6L67.7 173.3L99.2 203.2L130.8 181.3L162.4 205.2L193.9 213.3L225.5 224.7L257 228.3L288.6 242L320.2 254.9L351.7 257.4L383.3 268.6L414.8 271L446.4 283.8L478 285.5L509.5 283.2L541.1 297.5L572.6 290.7L604.2 299.3L635.8 297L667.3 289L698.9 301.3L730.4 301.9L762 299.9"></path><g id="polyline"><polyline id="polyline" points="36.10,160.60 67.70,173.30 99.20,203.20 130.80,181.30 162.40,205.20 193.90,213.30 225.50,224.70 257.00,228.30 288.60,242.00 320.20,254.90 351.70,257.40 383.30,268.60 414.80,271.00 446.40,283.80 478.00,285.50 509.50,283.20 541.10,297.50 572.60,290.70 604.20,299.30 635.80,297.00 667.30,289.00 698.90,301.30 730.40,301.90 762.00,299.90" stroke-linejoin="round" stroke-width="1.5" stroke="#A2559C" fill="none" stroke-linecap="butt"></polyline></g><g id="markers"><circle cx="36.1" cy="160.6" r="1.8" fill="#A2559C"></circle><circle cx="67.7" cy="173.3" r="1.8" fill="#A2559C"></circle><circle cx="99.2" cy="203.2" r="1.8" fill="#A2559C"></circle><circle cx="130.8" cy="181.3" r="1.8" fill="#A2559C"></circle><circle cx="162.4" cy="205.2" r="1.8" fill="#A2559C"></circle><circle cx="193.9" cy="213.3" r="1.8" fill="#A2559C"></circle><circle cx="225.5" cy="224.7" r="1.8" fill="#A2559C"></circle><circle cx="257" cy="228.3" r="1.8" fill="#A2559C"></circle><circle cx="288.6" cy="242" r="1.8" fill="#A2559C"></circle><circle cx="320.2" cy="254.9" r="1.8" fill="#A2559C"></circle><circle cx="351.7" cy="257.4" r="1.8" fill="#A2559C"></circle><circle cx="383.3" cy="268.6" r="1.8" fill="#A2559C"></circle><circle cx="414.8" cy="271" r="1.8" fill="#A2559C"></circle><circle cx="446.4" cy="283.8" r="1.8" fill="#A2559C"></circle><circle cx="478" cy="285.5" r="1.8" fill="#A2559C"></circle><circle cx="509.5" cy="283.2" r="1.8" fill="#A2559C"></circle><circle cx="541.1" cy="297.5" r="1.8" fill="#A2559C"></circle><circle cx="572.6" cy="290.7" r="1.8" fill="#A2559C"></circle><circle cx="604.2" cy="299.3" r="1.8" fill="#A2559C"></circle><circle cx="635.8" cy="297" r="1.8" fill="#A2559C"></circle><circle cx="667.3" cy="289" r="1.8" fill="#A2559C"></circle><circle cx="698.9" cy="301.3" r="1.8" fill="#A2559C"></circle><circle cx="730.4" cy="301.9" r="1.8" fill="#A2559C"></circle><circle cx="762" cy="299.9" r="1.8" fill="#A2559C"></circle></g></g><g id="line__70__201374"><path id="outline" fill="none" stroke-linecap="butt" stroke-linejoin="round" stroke="#fff" stroke-width="2.5" d="M36.1 215.4L67.7 236.4L99.2 247.9L130.8 241.4L162.4 258.9L193.9 270.7L225.5 265.3L257 278.3L288.6 273.9L320.2 294.1L351.7 295.4L383.3 302.4L414.8 310.2L446.4 322.3L478 320.5L509.5 311.2L541.1 324.7L572.6 326.4L604.2 326.4L635.8 337.8L667.3 342.8L698.9 317.9L730.4 323.1L762 324.4"></path><g id="polyline"><polyline id="polyline" points="36.10,215.40 67.70,236.40 99.20,247.90 130.80,241.40 162.40,258.90 193.90,270.70 225.50,265.30 257.00,278.30 288.60,273.90 320.20,294.10 351.70,295.40 383.30,302.40 414.80,310.20 446.40,322.30 478.00,320.50 509.50,311.20 541.10,324.70 572.60,326.40 604.20,326.40 635.80,337.80 667.30,342.80 698.90,317.90 730.40,323.10 762.00,324.40" stroke-linejoin="round" stroke-width="1.5" stroke="#C4523E" fill="none" stroke-linecap="butt"></polyline></g><g id="markers"><circle cx="36.1" cy="215.4" r="1.8" fill="#C4523E"></circle><circle cx="67.7" cy="236.4" r="1.8" fill="#C4523E"></circle><circle cx="99.2" cy="247.9" r="1.8" fill="#C4523E"></circle><circle cx="130.8" cy="241.4" r="1.8" fill="#C4523E"></circle><circle cx="162.4" cy="258.9" r="1.8" fill="#C4523E"></circle><circle cx="193.9" cy="270.7" r="1.8" fill="#C4523E"></circle><circle cx="225.5" cy="265.3" r="1.8" fill="#C4523E"></circle><circle cx="257" cy="278.3" r="1.8" fill="#C4523E"></circle><circle cx="288.6" cy="273.9" r="1.8" fill="#C4523E"></circle><circle cx="320.2" cy="294.1" r="1.8" fill="#C4523E"></circle><circle cx="351.7" cy="295.4" r="1.8" fill="#C4523E"></circle><circle cx="383.3" cy="302.4" r="1.8" fill="#C4523E"></circle><circle cx="414.8" cy="310.2" r="1.8" fill="#C4523E"></circle><circle cx="446.4" cy="322.3" r="1.8" fill="#C4523E"></circle><circle cx="478" cy="320.5" r="1.8" fill="#C4523E"></circle><circle cx="509.5" cy="311.2" r="1.8" fill="#C4523E"></circle><circle cx="541.1" cy="324.7" r="1.8" fill="#C4523E"></circle><circle cx="572.6" cy="326.4" r="1.8" fill="#C4523E"></circle><circle cx="604.2" cy="326.4" r="1.8" fill="#C4523E"></circle><circle cx="635.8" cy="337.8" r="1.8" fill="#C4523E"></circle><circle cx="667.3" cy="342.8" r="1.8" fill="#C4523E"></circle><circle cx="698.9" cy="317.9" r="1.8" fill="#C4523E"></circle><circle cx="730.4" cy="323.1" r="1.8" fill="#C4523E"></circle><circle cx="762" cy="324.4" r="1.8" fill="#C4523E"></circle></g></g><g id="line__65__201369"><path id="outline" fill="none" stroke-linecap="butt" stroke-linejoin="round" stroke="#fff" stroke-width="2.5" d="M36.1 266.8L67.7 274.8L99.2 275.7L130.8 283.7L162.4 296L193.9 297.1L225.5 305.8L257 320.7L288.6 312.6L320.2 314.3L351.7 329.8L383.3 331.2L414.8 338.9L446.4 357.1L478 336.9L509.5 339.9L541.1 347.1L572.6 355.4L604.2 349.2L635.8 338.9L667.3 334.8L698.9 321.9L730.4 314.9L762 321"></path><g id="polyline"><polyline id="polyline" points="36.10,266.80 67.70,274.80 99.20,275.70 130.80,283.70 162.40,296.00 193.90,297.10 225.50,305.80 257.00,320.70 288.60,312.60 320.20,314.30 351.70,329.80 383.30,331.20 414.80,338.90 446.40,357.10 478.00,336.90 509.50,339.90 541.10,347.10 572.60,355.40 604.20,349.20 635.80,338.90 667.30,334.80 698.90,321.90 730.40,314.90 762.00,321.00" stroke-linejoin="round" stroke-width="1.5" stroke="#9A5129" fill="none" stroke-linecap="butt"></polyline></g><g id="markers"><circle cx="36.1" cy="266.8" r="1.8" fill="#9A5129"></circle><circle cx="67.7" cy="274.8" r="1.8" fill="#9A5129"></circle><circle cx="99.2" cy="275.7" r="1.8" fill="#9A5129"></circle><circle cx="130.8" cy="283.7" r="1.8" fill="#9A5129"></circle><circle cx="162.4" cy="296" r="1.8" fill="#9A5129"></circle><circle cx="193.9" cy="297.1" r="1.8" fill="#9A5129"></circle><circle cx="225.5" cy="305.8" r="1.8" fill="#9A5129"></circle><circle cx="257" cy="320.7" r="1.8" fill="#9A5129"></circle><circle cx="288.6" cy="312.6" r="1.8" fill="#9A5129"></circle><circle cx="320.2" cy="314.3" r="1.8" fill="#9A5129"></circle><circle cx="351.7" cy="329.8" r="1.8" fill="#9A5129"></circle><circle cx="383.3" cy="331.2" r="1.8" fill="#9A5129"></circle><circle cx="414.8" cy="338.9" r="1.8" fill="#9A5129"></circle><circle cx="446.4" cy="357.1" r="1.8" fill="#9A5129"></circle><circle cx="478" cy="336.9" r="1.8" fill="#9A5129"></circle><circle cx="509.5" cy="339.9" r="1.8" fill="#9A5129"></circle><circle cx="541.1" cy="347.1" r="1.8" fill="#9A5129"></circle><circle cx="572.6" cy="355.4" r="1.8" fill="#9A5129"></circle><circle cx="604.2" cy="349.2" r="1.8" fill="#9A5129"></circle><circle cx="635.8" cy="338.9" r="1.8" fill="#9A5129"></circle><circle cx="667.3" cy="334.8" r="1.8" fill="#9A5129"></circle><circle cx="698.9" cy="321.9" r="1.8" fill="#9A5129"></circle><circle cx="730.4" cy="314.9" r="1.8" fill="#9A5129"></circle><circle cx="762" cy="321" r="1.8" fill="#9A5129"></circle></g></g><g id="line__60__201364"><path id="outline" fill="none" stroke-linecap="butt" stroke-linejoin="round" stroke="#fff" stroke-width="2.5" d="M36.1 282.6L67.7 299.3L99.2 297.3L130.8 292.5L162.4 299.9L193.9 305.5L225.5 310.1L257 327.5L288.6 324.2L320.2 331.5L351.7 341.6L383.3 343.6L414.8 352.5L446.4 354.4L478 347L509.5 342.2L541.1 338L572.6 330.1L604.2 328.3L635.8 327.3L667.3 311L698.9 307L730.4 311.8L762 294.9"></path><g id="polyline"><polyline id="polyline" points="36.10,282.60 67.70,299.30 99.20,297.30 130.80,292.50 162.40,299.90 193.90,305.50 225.50,310.10 257.00,327.50 288.60,324.20 320.20,331.50 351.70,341.60 383.30,343.60 414.80,352.50 446.40,354.40 478.00,347.00 509.50,342.20 541.10,338.00 572.60,330.10 604.20,328.30 635.80,327.30 667.30,311.00 698.90,307.00 730.40,311.80 762.00,294.90" stroke-linejoin="round" stroke-width="1.5" stroke="#00295B" fill="none" stroke-linecap="butt"></polyline></g><g id="markers"><circle cx="36.1" cy="282.6" r="1.8" fill="#00295B"></circle><circle cx="67.7" cy="299.3" r="1.8" fill="#00295B"></circle><circle cx="99.2" cy="297.3" r="1.8" fill="#00295B"></circle><circle cx="130.8" cy="292.5" r="1.8" fill="#00295B"></circle><circle cx="162.4" cy="299.9" r="1.8" fill="#00295B"></circle><circle cx="193.9" cy="305.5" r="1.8" fill="#00295B"></circle><circle cx="225.5" cy="310.1" r="1.8" fill="#00295B"></circle><circle cx="257" cy="327.5" r="1.8" fill="#00295B"></circle><circle cx="288.6" cy="324.2" r="1.8" fill="#00295B"></circle><circle cx="320.2" cy="331.5" r="1.8" fill="#00295B"></circle><circle cx="351.7" cy="341.6" r="1.8" fill="#00295B"></circle><circle cx="383.3" cy="343.6" r="1.8" fill="#00295B"></circle><circle cx="414.8" cy="352.5" r="1.8" fill="#00295B"></circle><circle cx="446.4" cy="354.4" r="1.8" fill="#00295B"></circle><circle cx="478" cy="347" r="1.8" fill="#00295B"></circle><circle cx="509.5" cy="342.2" r="1.8" fill="#00295B"></circle><circle cx="541.1" cy="338" r="1.8" fill="#00295B"></circle><circle cx="572.6" cy="330.1" r="1.8" fill="#00295B"></circle><circle cx="604.2" cy="328.3" r="1.8" fill="#00295B"></circle><circle cx="635.8" cy="327.3" r="1.8" fill="#00295B"></circle><circle cx="667.3" cy="311" r="1.8" fill="#00295B"></circle><circle cx="698.9" cy="307" r="1.8" fill="#00295B"></circle><circle cx="730.4" cy="311.8" r="1.8" fill="#00295B"></circle><circle cx="762" cy="294.9" r="1.8" fill="#00295B"></circle></g></g><g id="line__55__201359"><path id="outline" fill="none" stroke-linecap="butt" stroke-linejoin="round" stroke="#fff" stroke-width="2.5" d="M36.1 284L67.7 294.3L99.2 299.9L130.8 289.5L162.4 298.6L193.9 309.4L225.5 310.5L257 327.8L288.6 333.7L320.2 316.1L351.7 312.4L383.3 322.4L414.8 332.5L446.4 337.3L478 319.2L509.5 311L541.1 310L572.6 315.6L604.2 315.3L635.8 300.7L667.3 287.6L698.9 276L730.4 261.5L762 248.8"></path><g id="polyline"><polyline id="polyline" points="36.10,284.00 67.70,294.30 99.20,299.90 130.80,289.50 162.40,298.60 193.90,309.40 225.50,310.50 257.00,327.80 288.60,333.70 320.20,316.10 351.70,312.40 383.30,322.40 414.80,332.50 446.40,337.30 478.00,319.20 509.50,311.00 541.10,310.00 572.60,315.60 604.20,315.30 635.80,300.70 667.30,287.60 698.90,276.00 730.40,261.50 762.00,248.80" stroke-linejoin="round" stroke-width="1.5" stroke="#996D39" fill="none" stroke-linecap="butt"></polyline></g><g id="markers"><circle cx="36.1" cy="284" r="1.8" fill="#996D39"></circle><circle cx="67.7" cy="294.3" r="1.8" fill="#996D39"></circle><circle cx="99.2" cy="299.9" r="1.8" fill="#996D39"></circle><circle cx="130.8" cy="289.5" r="1.8" fill="#996D39"></circle><circle cx="162.4" cy="298.6" r="1.8" fill="#996D39"></circle><circle cx="193.9" cy="309.4" r="1.8" fill="#996D39"></circle><circle cx="225.5" cy="310.5" r="1.8" fill="#996D39"></circle><circle cx="257" cy="327.8" r="1.8" fill="#996D39"></circle><circle cx="288.6" cy="333.7" r="1.8" fill="#996D39"></circle><circle cx="320.2" cy="316.1" r="1.8" fill="#996D39"></circle><circle cx="351.7" cy="312.4" r="1.8" fill="#996D39"></circle><circle cx="383.3" cy="322.4" r="1.8" fill="#996D39"></circle><circle cx="414.8" cy="332.5" r="1.8" fill="#996D39"></circle><circle cx="446.4" cy="337.3" r="1.8" fill="#996D39"></circle><circle cx="478" cy="319.2" r="1.8" fill="#996D39"></circle><circle cx="509.5" cy="311" r="1.8" fill="#996D39"></circle><circle cx="541.1" cy="310" r="1.8" fill="#996D39"></circle><circle cx="572.6" cy="315.6" r="1.8" fill="#996D39"></circle><circle cx="604.2" cy="315.3" r="1.8" fill="#996D39"></circle><circle cx="635.8" cy="300.7" r="1.8" fill="#996D39"></circle><circle cx="667.3" cy="287.6" r="1.8" fill="#996D39"></circle><circle cx="698.9" cy="276" r="1.8" fill="#996D39"></circle><circle cx="730.4" cy="261.5" r="1.8" fill="#996D39"></circle><circle cx="762" cy="248.8" r="1.8" fill="#996D39"></circle></g></g><g id="line__50__201354"><path id="outline" fill="none" stroke-linecap="butt" stroke-linejoin="round" stroke="#fff" stroke-width="2.5" d="M36.1 287.8L67.7 309.7L99.2 307.4L130.8 309.8L162.4 301.6L193.9 309.9L225.5 306.3L257 314.6L288.6 312.7L320.2 309L351.7 316.8L383.3 314.8L414.8 322.3L446.4 320L478 311.3L509.5 303.9L541.1 295L572.6 288.2L604.2 289.4L635.8 274L667.3 266.7L698.9 252.8L730.4 234.5L762 235.9"></path><g id="polyline"><polyline id="polyline" points="36.10,287.80 67.70,309.70 99.20,307.40 130.80,309.80 162.40,301.60 193.90,309.90 225.50,306.30 257.00,314.60 288.60,312.70 320.20,309.00 351.70,316.80 383.30,314.80 414.80,322.30 446.40,320.00 478.00,311.30 509.50,303.90 541.10,295.00 572.60,288.20 604.20,289.40 635.80,274.00 667.30,266.70 698.90,252.80 730.40,234.50 762.00,235.90" stroke-linejoin="round" stroke-width="1.5" stroke="#883039" fill="none" stroke-linecap="butt"></polyline></g><g id="markers"><circle cx="36.1" cy="287.8" r="1.8" fill="#883039"></circle><circle cx="67.7" cy="309.7" r="1.8" fill="#883039"></circle><circle cx="99.2" cy="307.4" r="1.8" fill="#883039"></circle><circle cx="130.8" cy="309.8" r="1.8" fill="#883039"></circle><circle cx="162.4" cy="301.6" r="1.8" fill="#883039"></circle><circle cx="193.9" cy="309.9" r="1.8" fill="#883039"></circle><circle cx="225.5" cy="306.3" r="1.8" fill="#883039"></circle><circle cx="257" cy="314.6" r="1.8" fill="#883039"></circle><circle cx="288.6" cy="312.7" r="1.8" fill="#883039"></circle><circle cx="320.2" cy="309" r="1.8" fill="#883039"></circle><circle cx="351.7" cy="316.8" r="1.8" fill="#883039"></circle><circle cx="383.3" cy="314.8" r="1.8" fill="#883039"></circle><circle cx="414.8" cy="322.3" r="1.8" fill="#883039"></circle><circle cx="446.4" cy="320" r="1.8" fill="#883039"></circle><circle cx="478" cy="311.3" r="1.8" fill="#883039"></circle><circle cx="509.5" cy="303.9" r="1.8" fill="#883039"></circle><circle cx="541.1" cy="295" r="1.8" fill="#883039"></circle><circle cx="572.6" cy="288.2" r="1.8" fill="#883039"></circle><circle cx="604.2" cy="289.4" r="1.8" fill="#883039"></circle><circle cx="635.8" cy="274" r="1.8" fill="#883039"></circle><circle cx="667.3" cy="266.7" r="1.8" fill="#883039"></circle><circle cx="698.9" cy="252.8" r="1.8" fill="#883039"></circle><circle cx="730.4" cy="234.5" r="1.8" fill="#883039"></circle><circle cx="762" cy="235.9" r="1.8" fill="#883039"></circle></g></g><g id="line__45__201349"><path id="outline" fill="none" stroke-linecap="butt" stroke-linejoin="round" stroke="#fff" stroke-width="2.5" d="M36.1 296.4L67.7 311.1L99.2 312.8L130.8 305.4L162.4 296.2L193.9 310L225.5 315.7L257 313.1L288.6 309.7L320.2 303.7L351.7 302.9L383.3 301.4L414.8 311.4L446.4 307L478 295.5L509.5 287.1L541.1 291.1L572.6 278.6L604.2 281.1L635.8 276.4L667.3 266.7L698.9 252L730.4 254.8L762 243.2"></path><g id="polyline"><polyline id="polyline" points="36.10,296.40 67.70,311.10 99.20,312.80 130.80,305.40 162.40,296.20 193.90,310.00 225.50,315.70 257.00,313.10 288.60,309.70 320.20,303.70 351.70,302.90 383.30,301.40 414.80,311.40 446.40,307.00 478.00,295.50 509.50,287.10 541.10,291.10 572.60,278.60 604.20,281.10 635.80,276.40 667.30,266.70 698.90,252.00 730.40,254.80 762.00,243.20" stroke-linejoin="round" stroke-width="1.5" stroke="#286BBB" fill="none" stroke-linecap="butt"></polyline></g><g id="markers"><circle cx="36.1" cy="296.4" r="1.8" fill="#286BBB"></circle><circle cx="67.7" cy="311.1" r="1.8" fill="#286BBB"></circle><circle cx="99.2" cy="312.8" r="1.8" fill="#286BBB"></circle><circle cx="130.8" cy="305.4" r="1.8" fill="#286BBB"></circle><circle cx="162.4" cy="296.2" r="1.8" fill="#286BBB"></circle><circle cx="193.9" cy="310" r="1.8" fill="#286BBB"></circle><circle cx="225.5" cy="315.7" r="1.8" fill="#286BBB"></circle><circle cx="257" cy="313.1" r="1.8" fill="#286BBB"></circle><circle cx="288.6" cy="309.7" r="1.8" fill="#286BBB"></circle><circle cx="320.2" cy="303.7" r="1.8" fill="#286BBB"></circle><circle cx="351.7" cy="302.9" r="1.8" fill="#286BBB"></circle><circle cx="383.3" cy="301.4" r="1.8" fill="#286BBB"></circle><circle cx="414.8" cy="311.4" r="1.8" fill="#286BBB"></circle><circle cx="446.4" cy="307" r="1.8" fill="#286BBB"></circle><circle cx="478" cy="295.5" r="1.8" fill="#286BBB"></circle><circle cx="509.5" cy="287.1" r="1.8" fill="#286BBB"></circle><circle cx="541.1" cy="291.1" r="1.8" fill="#286BBB"></circle><circle cx="572.6" cy="278.6" r="1.8" fill="#286BBB"></circle><circle cx="604.2" cy="281.1" r="1.8" fill="#286BBB"></circle><circle cx="635.8" cy="276.4" r="1.8" fill="#286BBB"></circle><circle cx="667.3" cy="266.7" r="1.8" fill="#286BBB"></circle><circle cx="698.9" cy="252" r="1.8" fill="#286BBB"></circle><circle cx="730.4" cy="254.8" r="1.8" fill="#286BBB"></circle><circle cx="762" cy="243.2" r="1.8" fill="#286BBB"></circle></g></g><g id="line__40__201344"><path id="outline" fill="none" stroke-linecap="butt" stroke-linejoin="round" stroke="#fff" stroke-width="2.5" d="M36.1 305.4L67.7 315.7L99.2 316.5L130.8 306.7L162.4 315.2L193.9 304.4L225.5 302.1L257 303.6L288.6 298.2L320.2 295.7L351.7 297.6L383.3 298L414.8 315.2L446.4 300L478 302.6L509.5 289.5L541.1 293.1L572.6 291.3L604.2 291.4L635.8 298.8L667.3 278.4L698.9 282.8L730.4 279.3L762 282.1"></path><g id="polyline"><polyline id="polyline" points="36.10,305.40 67.70,315.70 99.20,316.50 130.80,306.70 162.40,315.20 193.90,304.40 225.50,302.10 257.00,303.60 288.60,298.20 320.20,295.70 351.70,297.60 383.30,298.00 414.80,315.20 446.40,300.00 478.00,302.60 509.50,289.50 541.10,293.10 572.60,291.30 604.20,291.40 635.80,298.80 667.30,278.40 698.90,282.80 730.40,279.30 762.00,282.10" stroke-linejoin="round" stroke-width="1.5" stroke="#18470F" fill="none" stroke-linecap="butt"></polyline></g><g id="markers"><circle cx="36.1" cy="305.4" r="1.8" fill="#18470F"></circle><circle cx="67.7" cy="315.7" r="1.8" fill="#18470F"></circle><circle cx="99.2" cy="316.5" r="1.8" fill="#18470F"></circle><circle cx="130.8" cy="306.7" r="1.8" fill="#18470F"></circle><circle cx="162.4" cy="315.2" r="1.8" fill="#18470F"></circle><circle cx="193.9" cy="304.4" r="1.8" fill="#18470F"></circle><circle cx="225.5" cy="302.1" r="1.8" fill="#18470F"></circle><circle cx="257" cy="303.6" r="1.8" fill="#18470F"></circle><circle cx="288.6" cy="298.2" r="1.8" fill="#18470F"></circle><circle cx="320.2" cy="295.7" r="1.8" fill="#18470F"></circle><circle cx="351.7" cy="297.6" r="1.8" fill="#18470F"></circle><circle cx="383.3" cy="298" r="1.8" fill="#18470F"></circle><circle cx="414.8" cy="315.2" r="1.8" fill="#18470F"></circle><circle cx="446.4" cy="300" r="1.8" fill="#18470F"></circle><circle cx="478" cy="302.6" r="1.8" fill="#18470F"></circle><circle cx="509.5" cy="289.5" r="1.8" fill="#18470F"></circle><circle cx="541.1" cy="293.1" r="1.8" fill="#18470F"></circle><circle cx="572.6" cy="291.3" r="1.8" fill="#18470F"></circle><circle cx="604.2" cy="291.4" r="1.8" fill="#18470F"></circle><circle cx="635.8" cy="298.8" r="1.8" fill="#18470F"></circle><circle cx="667.3" cy="278.4" r="1.8" fill="#18470F"></circle><circle cx="698.9" cy="282.8" r="1.8" fill="#18470F"></circle><circle cx="730.4" cy="279.3" r="1.8" fill="#18470F"></circle><circle cx="762" cy="282.1" r="1.8" fill="#18470F"></circle></g></g><g id="line__35__201339"><path id="outline" fill="none" stroke-linecap="butt" stroke-linejoin="round" stroke="#fff" stroke-width="2.5" d="M36.1 306.1L67.7 302.4L99.2 305.6L130.8 296.7L162.4 304.4L193.9 304.4L225.5 304.5L257 298.7L288.6 305.5L320.2 299.7L351.7 304.4L383.3 302.4L414.8 311.1L446.4 323.1L478 315.2L509.5 314.4L541.1 321.6L572.6 319L604.2 322.2L635.8 309.3L667.3 313.4L698.9 299.1L730.4 299.3L762 299.2"></path><g id="polyline"><polyline id="polyline" points="36.10,306.10 67.70,302.40 99.20,305.60 130.80,296.70 162.40,304.40 193.90,304.40 225.50,304.50 257.00,298.70 288.60,305.50 320.20,299.70 351.70,304.40 383.30,302.40 414.80,311.10 446.40,323.10 478.00,315.20 509.50,314.40 541.10,321.60 572.60,319.00 604.20,322.20 635.80,309.30 667.30,313.40 698.90,299.10 730.40,299.30 762.00,299.20" stroke-linejoin="round" stroke-width="1.5" stroke="#CF0A66" fill="none" stroke-linecap="butt"></polyline></g><g id="markers"><circle cx="36.1" cy="306.1" r="1.8" fill="#CF0A66"></circle><circle cx="67.7" cy="302.4" r="1.8" fill="#CF0A66"></circle><circle cx="99.2" cy="305.6" r="1.8" fill="#CF0A66"></circle><circle cx="130.8" cy="296.7" r="1.8" fill="#CF0A66"></circle><circle cx="162.4" cy="304.4" r="1.8" fill="#CF0A66"></circle><circle cx="193.9" cy="304.4" r="1.8" fill="#CF0A66"></circle><circle cx="225.5" cy="304.5" r="1.8" fill="#CF0A66"></circle><circle cx="257" cy="298.7" r="1.8" fill="#CF0A66"></circle><circle cx="288.6" cy="305.5" r="1.8" fill="#CF0A66"></circle><circle cx="320.2" cy="299.7" r="1.8" fill="#CF0A66"></circle><circle cx="351.7" cy="304.4" r="1.8" fill="#CF0A66"></circle><circle cx="383.3" cy="302.4" r="1.8" fill="#CF0A66"></circle><circle cx="414.8" cy="311.1" r="1.8" fill="#CF0A66"></circle><circle cx="446.4" cy="323.1" r="1.8" fill="#CF0A66"></circle><circle cx="478" cy="315.2" r="1.8" fill="#CF0A66"></circle><circle cx="509.5" cy="314.4" r="1.8" fill="#CF0A66"></circle><circle cx="541.1" cy="321.6" r="1.8" fill="#CF0A66"></circle><circle cx="572.6" cy="319" r="1.8" fill="#CF0A66"></circle><circle cx="604.2" cy="322.2" r="1.8" fill="#CF0A66"></circle><circle cx="635.8" cy="309.3" r="1.8" fill="#CF0A66"></circle><circle cx="667.3" cy="313.4" r="1.8" fill="#CF0A66"></circle><circle cx="698.9" cy="299.1" r="1.8" fill="#CF0A66"></circle><circle cx="730.4" cy="299.3" r="1.8" fill="#CF0A66"></circle><circle cx="762" cy="299.2" r="1.8" fill="#CF0A66"></circle></g></g><g id="line__30__201334"><path id="outline" fill="none" stroke-linecap="butt" stroke-linejoin="round" stroke="#fff" stroke-width="2.5" d="M36.1 299.8L67.7 299.8L99.2 308.6L130.8 299.9L162.4 298.7L193.9 307.2L225.5 305.8L257 305.1L288.6 296.8L320.2 315.5L351.7 315.1L383.3 323.8L414.8 322.8L446.4 347.5L478 333.4L509.5 339.6L541.1 326.4L572.6 332.9L604.2 332.7L635.8 342.5L667.3 326.5L698.9 330.4L730.4 328.8L762 322.2"></path><g id="polyline"><polyline id="polyline" points="36.10,299.80 67.70,299.80 99.20,308.60 130.80,299.90 162.40,298.70 193.90,307.20 225.50,305.80 257.00,305.10 288.60,296.80 320.20,315.50 351.70,315.10 383.30,323.80 414.80,322.80 446.40,347.50 478.00,333.40 509.50,339.60 541.10,326.40 572.60,332.90 604.20,332.70 635.80,342.50 667.30,326.50 698.90,330.40 730.40,328.80 762.00,322.20" stroke-linejoin="round" stroke-width="1.5" stroke="#6D3E91" fill="none" stroke-linecap="butt"></polyline></g><g id="markers"><circle cx="36.1" cy="299.8" r="1.8" fill="#6D3E91"></circle><circle cx="67.7" cy="299.8" r="1.8" fill="#6D3E91"></circle><circle cx="99.2" cy="308.6" r="1.8" fill="#6D3E91"></circle><circle cx="130.8" cy="299.9" r="1.8" fill="#6D3E91"></circle><circle cx="162.4" cy="298.7" r="1.8" fill="#6D3E91"></circle><circle cx="193.9" cy="307.2" r="1.8" fill="#6D3E91"></circle><circle cx="225.5" cy="305.8" r="1.8" fill="#6D3E91"></circle><circle cx="257" cy="305.1" r="1.8" fill="#6D3E91"></circle><circle cx="288.6" cy="296.8" r="1.8" fill="#6D3E91"></circle><circle cx="320.2" cy="315.5" r="1.8" fill="#6D3E91"></circle><circle cx="351.7" cy="315.1" r="1.8" fill="#6D3E91"></circle><circle cx="383.3" cy="323.8" r="1.8" fill="#6D3E91"></circle><circle cx="414.8" cy="322.8" r="1.8" fill="#6D3E91"></circle><circle cx="446.4" cy="347.5" r="1.8" fill="#6D3E91"></circle><circle cx="478" cy="333.4" r="1.8" fill="#6D3E91"></circle><circle cx="509.5" cy="339.6" r="1.8" fill="#6D3E91"></circle><circle cx="541.1" cy="326.4" r="1.8" fill="#6D3E91"></circle><circle cx="572.6" cy="332.9" r="1.8" fill="#6D3E91"></circle><circle cx="604.2" cy="332.7" r="1.8" fill="#6D3E91"></circle><circle cx="635.8" cy="342.5" r="1.8" fill="#6D3E91"></circle><circle cx="667.3" cy="326.5" r="1.8" fill="#6D3E91"></circle><circle cx="698.9" cy="330.4" r="1.8" fill="#6D3E91"></circle><circle cx="730.4" cy="328.8" r="1.8" fill="#6D3E91"></circle><circle cx="762" cy="322.2" r="1.8" fill="#6D3E91"></circle></g></g><g id="line__25__201329"><path id="outline" fill="none" stroke-linecap="butt" stroke-linejoin="round" stroke="#fff" stroke-width="2.5" d="M36.1 300.5L67.7 300.5L99.2 302.4L130.8 305.7L162.4 306.6L193.9 316.4L225.5 302.7L257 294.4L288.6 303.1L320.2 307.7L351.7 314.1L383.3 318.6L414.8 330.6L446.4 345.7L478 338.1L509.5 336.1L541.1 348.5L572.6 342.2L604.2 348.9L635.8 341.8L667.3 336.8L698.9 327.1L730.4 330.8L762 312.8"></path><g id="polyline"><polyline id="polyline" points="36.10,300.50 67.70,300.50 99.20,302.40 130.80,305.70 162.40,306.60 193.90,316.40 225.50,302.70 257.00,294.40 288.60,303.10 320.20,307.70 351.70,314.10 383.30,318.60 414.80,330.60 446.40,345.70 478.00,338.10 509.50,336.10 541.10,348.50 572.60,342.20 604.20,348.90 635.80,341.80 667.30,336.80 698.90,327.10 730.40,330.80 762.00,312.80" stroke-linejoin="round" stroke-width="1.5" stroke="#BE5915" fill="none" stroke-linecap="butt"></polyline></g><g id="markers"><circle cx="36.1" cy="300.5" r="1.8" fill="#BE5915"></circle><circle cx="67.7" cy="300.5" r="1.8" fill="#BE5915"></circle><circle cx="99.2" cy="302.4" r="1.8" fill="#BE5915"></circle><circle cx="130.8" cy="305.7" r="1.8" fill="#BE5915"></circle><circle cx="162.4" cy="306.6" r="1.8" fill="#BE5915"></circle><circle cx="193.9" cy="316.4" r="1.8" fill="#BE5915"></circle><circle cx="225.5" cy="302.7" r="1.8" fill="#BE5915"></circle><circle cx="257" cy="294.4" r="1.8" fill="#BE5915"></circle><circle cx="288.6" cy="303.1" r="1.8" fill="#BE5915"></circle><circle cx="320.2" cy="307.7" r="1.8" fill="#BE5915"></circle><circle cx="351.7" cy="314.1" r="1.8" fill="#BE5915"></circle><circle cx="383.3" cy="318.6" r="1.8" fill="#BE5915"></circle><circle cx="414.8" cy="330.6" r="1.8" fill="#BE5915"></circle><circle cx="446.4" cy="345.7" r="1.8" fill="#BE5915"></circle><circle cx="478" cy="338.1" r="1.8" fill="#BE5915"></circle><circle cx="509.5" cy="336.1" r="1.8" fill="#BE5915"></circle><circle cx="541.1" cy="348.5" r="1.8" fill="#BE5915"></circle><circle cx="572.6" cy="342.2" r="1.8" fill="#BE5915"></circle><circle cx="604.2" cy="348.9" r="1.8" fill="#BE5915"></circle><circle cx="635.8" cy="341.8" r="1.8" fill="#BE5915"></circle><circle cx="667.3" cy="336.8" r="1.8" fill="#BE5915"></circle><circle cx="698.9" cy="327.1" r="1.8" fill="#BE5915"></circle><circle cx="730.4" cy="330.8" r="1.8" fill="#BE5915"></circle><circle cx="762" cy="312.8" r="1.8" fill="#BE5915"></circle></g></g><g id="line__20__201324"><path id="outline" fill="none" stroke-linecap="butt" stroke-linejoin="round" stroke="#fff" stroke-width="2.5" d="M36.1 301.5L67.7 305.7L99.2 301.1L130.8 303.7L162.4 307.1L193.9 306L225.5 294.1L257 285.6L288.6 288.8L320.2 312.5L351.7 324.4L383.3 325L414.8 337.3L446.4 339.7L478 346.9L509.5 341.9L541.1 345.9L572.6 340.2L604.2 341.9L635.8 340.2L667.3 339.4L698.9 338L730.4 339.2L762 325.5"></path><g id="polyline"><polyline id="polyline" points="36.10,301.50 67.70,305.70 99.20,301.10 130.80,303.70 162.40,307.10 193.90,306.00 225.50,294.10 257.00,285.60 288.60,288.80 320.20,312.50 351.70,324.40 383.30,325.00 414.80,337.30 446.40,339.70 478.00,346.90 509.50,341.90 541.10,345.90 572.60,340.20 604.20,341.90 635.80,340.20 667.30,339.40 698.90,338.00 730.40,339.20 762.00,325.50" stroke-linejoin="round" stroke-width="1.5" stroke="#2C8465" fill="none" stroke-linecap="butt"></polyline></g><g id="markers"><circle cx="36.1" cy="301.5" r="1.8" fill="#2C8465"></circle><circle cx="67.7" cy="305.7" r="1.8" fill="#2C8465"></circle><circle cx="99.2" cy="301.1" r="1.8" fill="#2C8465"></circle><circle cx="130.8" cy="303.7" r="1.8" fill="#2C8465"></circle><circle cx="162.4" cy="307.1" r="1.8" fill="#2C8465"></circle><circle cx="193.9" cy="306" r="1.8" fill="#2C8465"></circle><circle cx="225.5" cy="294.1" r="1.8" fill="#2C8465"></circle><circle cx="257" cy="285.6" r="1.8" fill="#2C8465"></circle><circle cx="288.6" cy="288.8" r="1.8" fill="#2C8465"></circle><circle cx="320.2" cy="312.5" r="1.8" fill="#2C8465"></circle><circle cx="351.7" cy="324.4" r="1.8" fill="#2C8465"></circle><circle cx="383.3" cy="325" r="1.8" fill="#2C8465"></circle><circle cx="414.8" cy="337.3" r="1.8" fill="#2C8465"></circle><circle cx="446.4" cy="339.7" r="1.8" fill="#2C8465"></circle><circle cx="478" cy="346.9" r="1.8" fill="#2C8465"></circle><circle cx="509.5" cy="341.9" r="1.8" fill="#2C8465"></circle><circle cx="541.1" cy="345.9" r="1.8" fill="#2C8465"></circle><circle cx="572.6" cy="340.2" r="1.8" fill="#2C8465"></circle><circle cx="604.2" cy="341.9" r="1.8" fill="#2C8465"></circle><circle cx="635.8" cy="340.2" r="1.8" fill="#2C8465"></circle><circle cx="667.3" cy="339.4" r="1.8" fill="#2C8465"></circle><circle cx="698.9" cy="338" r="1.8" fill="#2C8465"></circle><circle cx="730.4" cy="339.2" r="1.8" fill="#2C8465"></circle><circle cx="762" cy="325.5" r="1.8" fill="#2C8465"></circle></g></g><g id="line__15__201319"><path id="outline" fill="none" stroke-linecap="butt" stroke-linejoin="round" stroke="#fff" stroke-width="2.5" d="M36.1 370.3L67.7 356.4L99.2 356.8L130.8 359.7L162.4 360.1L193.9 363.4L225.5 361.9L257 359.8L288.6 368.1L320.2 378.1L351.7 382.1L383.3 389.9L414.8 399.7L446.4 402L478 402.9L509.5 410.2L541.1 412.5L572.6 399.4L604.2 406.8L635.8 412L667.3 417.9L698.9 412.3L730.4 408.7L762 409.5"></path><g id="polyline"><polyline id="polyline" points="36.10,370.30 67.70,356.40 99.20,356.80 130.80,359.70 162.40,360.10 193.90,363.40 225.50,361.90 257.00,359.80 288.60,368.10 320.20,378.10 351.70,382.10 383.30,389.90 414.80,399.70 446.40,402.00 478.00,402.90 509.50,410.20 541.10,412.50 572.60,399.40 604.20,406.80 635.80,412.00 667.30,417.90 698.90,412.30 730.40,408.70 762.00,409.50" stroke-linejoin="round" stroke-width="1.5" stroke="#C15065" fill="none" stroke-linecap="butt"></polyline></g><g id="markers"><circle cx="36.1" cy="370.3" r="1.8" fill="#C15065"></circle><circle cx="67.7" cy="356.4" r="1.8" fill="#C15065"></circle><circle cx="99.2" cy="356.8" r="1.8" fill="#C15065"></circle><circle cx="130.8" cy="359.7" r="1.8" fill="#C15065"></circle><circle cx="162.4" cy="360.1" r="1.8" fill="#C15065"></circle><circle cx="193.9" cy="363.4" r="1.8" fill="#C15065"></circle><circle cx="225.5" cy="361.9" r="1.8" fill="#C15065"></circle><circle cx="257" cy="359.8" r="1.8" fill="#C15065"></circle><circle cx="288.6" cy="368.1" r="1.8" fill="#C15065"></circle><circle cx="320.2" cy="378.1" r="1.8" fill="#C15065"></circle><circle cx="351.7" cy="382.1" r="1.8" fill="#C15065"></circle><circle cx="383.3" cy="389.9" r="1.8" fill="#C15065"></circle><circle cx="414.8" cy="399.7" r="1.8" fill="#C15065"></circle><circle cx="446.4" cy="402" r="1.8" fill="#C15065"></circle><circle cx="478" cy="402.9" r="1.8" fill="#C15065"></circle><circle cx="509.5" cy="410.2" r="1.8" fill="#C15065"></circle><circle cx="541.1" cy="412.5" r="1.8" fill="#C15065"></circle><circle cx="572.6" cy="399.4" r="1.8" fill="#C15065"></circle><circle cx="604.2" cy="406.8" r="1.8" fill="#C15065"></circle><circle cx="635.8" cy="412" r="1.8" fill="#C15065"></circle><circle cx="667.3" cy="417.9" r="1.8" fill="#C15065"></circle><circle cx="698.9" cy="412.3" r="1.8" fill="#C15065"></circle><circle cx="730.4" cy="408.7" r="1.8" fill="#C15065"></circle><circle cx="762" cy="409.5" r="1.8" fill="#C15065"></circle></g></g></g></g></g></g><g id="footer" class="SourcesFooter" style="fill:#5b5b5b"><g id="sources" class="markdown-text-wrap"><text x="16.0" y="562.7" style="font-size:13.5px;line-height:1.2"><tspan x="16" y="562.7"><tspan style="font-weight:700">Data source:</tspan> WHO Mortality Database (2024)</tspan></text></g><g id="note" class="markdown-text-wrap"><text x="16.0" y="580.9" style="font-size:13.5px;line-height:1.2"><tspan x="16" y="580.9"><tspan style="font-weight:700">Note:</tspan> Reported rates are based on the <tspan class="dod-span" data-id="underlying-cause-of-death">underlying cause of death<tspan style="font-feature-settings:&quot;sups&quot;">¹</tspan></tspan> listed on death certificates.</tspan></text></g><text id="origin-url" font-size="13.50" x="615.4" y="562.7"><tspan x="615.435" y="562.695"><a target="_blank" style="fill: #5b5b5b;" href="https://ourworldindata.org/suicide">OurWorldinData.org/suicide</a> | <a target="_blank" style="fill: #5b5b5b;" href="https://creativecommons.org/licenses/by/4.0/">CC BY</a></tspan></text></g><line id="separator-line" x1="16" y1="600" x2="834" y2="600" stroke="#e7e7e7"></line><g id="details" transform="translate(15, 616)"><g class="markdown-text-wrap"><text x="0.0" y="12.0" style="font-size:12.375px;fill:#5b5b5b;line-height:1.2"><tspan x="0" y="12.0"><tspan style="font-weight:700">1.</tspan> <tspan style="font-weight:700">Underlying cause of death</tspan>: The ‘underlying cause of death’ is defined by the World Health Organization as: a) the disease or injury which</tspan><tspan x="0" y="26.9">initiated the train of morbid events leading directly to death, or b) the circumstances of the accident or violence which produced the fatal injury. All</tspan><tspan x="0" y="41.7">deaths may not be registered with a cause of death, especially if there is a lack of medical records for the person deceased, a lack of doctors,</tspan><tspan x="0" y="56.6">nurses, or hospitals nearby, or if the country has a poorly functioning vital registration system. 📄 You can read more about how causes of death are</tspan><tspan x="0" y="71.4">determined in our article: How are causes of death registered around the world?</tspan></text></g></g></svg>